<?xml version="1.0" encoding="UTF-8"?>
<svg width="140px" height="140px" viewBox="0 0 140 140" version="1.1" xmlns="http://www.w3.org/2000/svg" xmlns:xlink="http://www.w3.org/1999/xlink">
    <!-- Generator: Sketch 40.3 (33839) - http://www.bohemiancoding.com/sketch -->
    <title>ic_response_exercise_almostdaily</title>
    <desc>Created with Sketch.</desc>
    <defs></defs>
    <g id="Styleguide/Icons" stroke="none" stroke-width="1" fill="none" fill-rule="evenodd">
        <g id="ic_response_exercise_almostdaily">
            <g id="Page-1" transform="translate(26.000000, 27.000000)">
                <path d="M13.3148651,25.1164675 C13.3148651,25.1164675 20.3302519,31.9573766 25.7335255,27.071013" id="Stroke-1" stroke="#000000" stroke-width="4" stroke-linecap="round" stroke-linejoin="round"></path>
                <path d="M24.6811613,15.1059558 L33.2177274,23.2245792" id="Stroke-3" stroke="#000000" stroke-width="4" stroke-linecap="round" stroke-linejoin="round"></path>
                <path d="M30.0169642,10.5686182 L39.559417,19.6432935" id="Stroke-5" stroke="#000000" stroke-width="4" stroke-linecap="round" stroke-linejoin="round"></path>
                <path d="M19.5241953,28.8306623 L25.1486292,52.1076234" id="Stroke-7" stroke="#000000" stroke-width="4" stroke-linecap="round" stroke-linejoin="round"></path>
                <path d="M23.0452481,60.0190649 C23.0452481,60.0190649 27.0890028,29.909013 54.8900972,30.8282078" id="Stroke-9" stroke="#000000" stroke-width="4" stroke-linecap="round" stroke-linejoin="round"></path>
                <path d="M56.092334,33.7608078 C54.6654566,30.9373273 53.8616453,27.7475091 53.8616453,24.3722883 C53.8616453,12.8147818 63.2783623,3.44524935 74.8954566,3.44524935 C86.5125509,3.44524935 95.9303906,12.8147818 95.9303906,24.3722883 C95.9303906,28.6890416 94.6157774,32.7008857 92.3637585,36.0336649 L93.0687774,34.9882623 C68.1607302,71.4902364 37.5462962,81.9666 22.5219849,84.9687818 C17.0906453,86.0543922 11.4572302,84.8738468 6.92512642,81.7063662 L6.92512642,81.7063662 C2.5838717,78.6717948 -0.000449056604,73.7240026 -0.000449056604,68.445613 L-0.000449056604,26.6942883 C-0.000449056604,25.483587 0.493513208,24.3242623 1.36917358,23.4821325 L25.2185698,1.25615844 C26.9070226,-0.368906494 29.5699283,-0.423633766 31.324617,1.12995065 L42.3343623,10.8758727 C44.2754094,12.5947558 44.3495038,15.5891195 42.4960226,17.4007039 L31.9532962,26.372626 C30.2502491,28.0378987 27.5357019,28.0848078 25.7742774,26.4809636 L19.5761736,20.8340026" id="Stroke-11" stroke="#000000" stroke-width="4" stroke-linecap="round" stroke-linejoin="round"></path>
                <path d="M39.670334,65.5103325 C39.670334,65.5103325 59.1773528,58.7219169 59.1773528,45.4131377" id="Stroke-13" stroke="#000000" stroke-width="3" stroke-linecap="round" stroke-linejoin="round"></path>
                <path d="M40.4112774,67.6186727 C40.1665415,67.7035558 39.9161925,67.7448805 39.670334,67.7448805 C38.7441547,67.7448805 37.8763528,67.1696857 37.5519094,66.249374 C37.1421453,65.0855818 37.7584755,63.8112182 38.9271453,63.402439 C39.1067679,63.3398935 56.9331925,56.9680753 56.9331925,45.4128026 C56.9331925,44.1797636 57.9379566,43.1790364 59.1784755,43.1790364 C60.4178717,43.1790364 61.4237585,44.1797636 61.4237585,45.4128026 C61.4237585,60.1377896 41.2700981,67.3193481 40.4112774,67.6186727 M74.8954566,5.67968571 C64.5345981,5.67968571 56.1058057,14.0652442 56.1058057,24.3718416 C56.1058057,27.3215299 56.7760226,30.1427766 58.0984943,32.7574 C58.6553245,33.8586468 58.2096358,35.2022571 57.100466,35.7573481 C55.9946642,36.3113221 54.6441264,35.8645688 54.0861736,34.764439 C53.8021453,34.2026468 53.5506736,33.6296857 53.3149189,33.0522571 C43.3907679,33.1483091 35.7051642,37.5722831 30.4657962,46.2314779 C26.2682396,53.1673221 25.2803151,60.2427766 25.271334,60.3142571 C25.1197774,61.4367247 24.1565509,62.2520494 23.0485038,62.2520494 C22.9485887,62.2520494 22.8486736,62.2453481 22.7487585,62.2330623 C21.519466,62.0688805 20.6550321,60.9452961 20.8200604,59.723426 C20.8335321,59.6229065 21.3016736,56.4286208 22.844183,52.1219195 L17.5823623,30.3494 C15.1619472,29.4860494 13.0480132,27.9849584 11.7423811,26.7117117 C10.8577396,25.848361 10.8431453,24.4332701 11.7109472,23.5520494 C12.5765038,22.6719455 13.9977679,22.6563091 14.8835321,23.5185429 C15.0957113,23.7229325 18.9306547,27.3382831 22.3816547,26.4190883 L18.0594849,22.4809584 C17.1445321,21.6488805 17.0827868,20.2349065 17.9202774,19.3257636 C18.7555226,18.4155039 20.1779094,18.3540753 21.0917396,19.1872701 L27.2898434,24.8331143 C28.171117,25.6361532 29.5295132,25.6115818 30.3804755,24.7795039 C30.4175226,24.7426468 30.4556925,24.7080234 30.4949849,24.6756338 L31.0226264,24.2266468 L23.129334,16.7200753 C22.233466,15.8678935 22.2009094,14.4528026 23.0586075,13.5626468 C23.9163057,12.6702571 25.3353245,12.6378675 26.2323151,13.4911662 L34.4511736,21.3082312 L36.3562962,19.6865169 L28.4652491,12.1821792 C27.5693811,11.3311143 27.5368245,9.91602338 28.3945226,9.02475065 C29.2522208,8.13236104 30.6712396,8.09997143 31.5682302,8.95438701 L39.7848434,16.7681013 L40.9681075,15.7606727 C41.3868528,15.3295558 41.6091358,14.7621792 41.5945415,14.1590623 C41.5788245,13.5336078 41.3116358,12.9606468 40.8423717,12.5440494 L29.8326264,2.79924416 C28.9580887,2.02412727 27.6165321,2.05428312 26.7790415,2.86178961 L2.90382453,25.1123351 C2.49518302,25.5065948 2.2459566,26.0907247 2.2459566,26.6938416 L2.2459566,68.4451662 C2.2459566,72.9919974 4.47776792,77.2663091 8.21504151,79.8786987 C12.225117,82.6809584 17.2803717,83.7408805 22.0796642,82.7792442 C37.4070887,79.7167506 66.6328151,69.3531922 90.7673623,34.3791143 C92.6780981,31.3903351 93.6839849,27.9414 93.6839849,24.3718416 C93.6839849,14.0652442 85.2551925,5.67968571 74.8954566,5.67968571" id="Fill-15" fill="#FFFFFF"></path>
            </g>
        </g>
    </g>
</svg>