<svg xmlns="http://www.w3.org/2000/svg" width="140" height="140" viewBox="0 0 140 140">
  <g fill="none" fill-rule="evenodd" stroke="#000" stroke-width="4" transform="translate(20 20)">
    <path d="M24.1828 39.2807C24.1828 39.2807 33.9268 28.5107 44.1828 38.7677M53.863 39.2807C53.863 39.2807 63.607 28.5107 73.863 38.7677"/>
    <path d="M100.0002,49.9999 C100.0002,77.6139 77.6142,99.9999 50.0002,99.9999 C22.3862,99.9999 0.0002,77.6139 0.0002,49.9999 C0.0002,22.3859 22.3862,-0.0001 50.0002,-0.0001 C77.6142,-0.0001 100.0002,22.3859 100.0002,49.9999 Z"/>
    <path d="M81.2502 44.9999C80.1872 44.9999 79.1232 44.8229 78.3432 44.4679 71.7142 41.5259 72.1752 34.5069 79.7262 24.1559L81.2142 22.0999 82.7032 24.1559C90.2542 34.4719 90.7152 41.4909 84.0862 44.4679 83.3772 44.8229 82.3132 44.9999 81.2502 44.9999zM32.7487 66.3397C32.7487 72.4447 40.2617 77.3937 49.5277 77.3937 58.7947 77.3937 66.3077 72.4447 66.3077 66.3397"/>
  </g>
</svg>
