<?xml version="1.0" encoding="UTF-8"?>
<svg width="140px" height="140px" viewBox="0 0 140 140" version="1.1" xmlns="http://www.w3.org/2000/svg" xmlns:xlink="http://www.w3.org/1999/xlink">
    <!-- Generator: Sketch 40.3 (33839) - http://www.bohemiancoding.com/sketch -->
    <title>ic_question_curious</title>
    <desc>Created with Sketch.</desc>
    <defs></defs>
    <g id="Styleguide/Icons" stroke="none" stroke-width="1" fill="none" fill-rule="evenodd">
        <g id="ic_question_curious">
            <g id="Page-1" transform="translate(20.000000, 20.000000)">
                <path d="M100,50 C100,77.614 77.614,100 50,100 C22.386,100 0,77.614 0,50 C0,22.386 22.386,0 50,0 C77.614,0 100,22.386 100,50" id="Fill-1" fill="#FFFFFF"></path>
                <path d="M100,50 C100,77.614 77.614,100 50,100 C22.386,100 0,77.614 0,50 C0,22.386 22.386,0 50,0 C77.614,0 100,22.386 100,50 L100,50 Z" id="Stroke-3" stroke="#000000" stroke-width="4"></path>
                <path d="M40.7406,38.7649 C40.7406,41.8029 38.2786,44.2649 35.2406,44.2649 C32.2026,44.2649 29.7406,41.8029 29.7406,38.7649 C29.7406,35.7269 32.2026,33.2649 35.2406,33.2649 C38.2786,33.2649 40.7406,35.7269 40.7406,38.7649" id="Fill-5" fill="#000000"></path>
                <path d="M71.2374,38.7649 C71.2374,41.8029 68.7754,44.2649 65.7374,44.2649 C62.6994,44.2649 60.2374,41.8029 60.2374,38.7649 C60.2374,35.7269 62.6994,33.2649 65.7374,33.2649 C68.7754,33.2649 71.2374,35.7269 71.2374,38.7649" id="Fill-7" fill="#000000"></path>
                <path d="M24.0739,23.0901 C24.0739,23.0901 33.8179,12.3211 44.0739,22.5771" id="Stroke-9" stroke="#000000" stroke-width="4"></path>
                <path d="M55.0987,23.0901 C55.0987,23.0901 64.8427,12.3211 75.0987,22.5771" id="Stroke-11" stroke="#000000" stroke-width="4"></path>
            </g>
        </g>
    </g>
</svg>