<?xml version="1.0" encoding="UTF-8"?>
<svg width="140px" height="140px" viewBox="0 0 140 140" version="1.1" xmlns="http://www.w3.org/2000/svg" xmlns:xlink="http://www.w3.org/1999/xlink">
    <!-- Generator: Sketch 40.3 (33839) - http://www.bohemiancoding.com/sketch -->
    <title>ic_question_informed</title>
    <desc>Created with Sketch.</desc>
    <defs></defs>
    <g id="Styleguide/Icons" stroke="none" stroke-width="1" fill="none" fill-rule="evenodd">
        <g id="ic_question_informed">
            <g id="Page-1" transform="translate(20.000000, 20.000000)">
                <path d="M100,50 C100,77.614 77.614,100 50,100 C22.386,100 0,77.614 0,50 C0,22.386 22.386,0 50,0 C77.614,0 100,22.386 100,50" id="Fill-1" fill="#FFFFFF"></path>
                <path d="M100,50 C100,77.614 77.614,100 50,100 C22.386,100 0,77.614 0,50 C0,22.386 22.386,0 50,0 C77.614,0 100,22.386 100,50 L100,50 Z" id="Stroke-3" stroke="#000000" stroke-width="4"></path>
                <path d="M42.095,38.3061 C42.095,45.6481 36.143,51.6001 28.801,51.6001 C21.46,51.6001 15.508,45.6481 15.508,38.3061 C15.508,30.9641 21.46,25.0121 28.801,25.0121 C36.143,25.0121 42.095,30.9641 42.095,38.3061" id="Fill-5" fill="#FFFFFF"></path>
                <path d="M42.095,38.3061 C42.095,45.6481 36.143,51.6001 28.801,51.6001 C21.46,51.6001 15.508,45.6481 15.508,38.3061 C15.508,30.9641 21.46,25.0121 28.801,25.0121 C36.143,25.0121 42.095,30.9641 42.095,38.3061 L42.095,38.3061 Z" id="Stroke-7" stroke="#000000" stroke-width="4"></path>
                <path d="M84.6729,38.3061 C84.6729,45.6481 78.7209,51.6001 71.3789,51.6001 C64.0379,51.6001 58.0859,45.6481 58.0859,38.3061 C58.0859,30.9641 64.0379,25.0121 71.3789,25.0121 C78.7209,25.0121 84.6729,30.9641 84.6729,38.3061" id="Fill-9" fill="#FFFFFF"></path>
                <path d="M84.6729,38.3061 C84.6729,45.6481 78.7209,51.6001 71.3789,51.6001 C64.0379,51.6001 58.0859,45.6481 58.0859,38.3061 C58.0859,30.9641 64.0379,25.0121 71.3789,25.0121 C78.7209,25.0121 84.6729,30.9641 84.6729,38.3061 L84.6729,38.3061 Z" id="Stroke-11" stroke="#000000" stroke-width="4"></path>
                <path d="M41.6052,34.8782 C41.6052,30.1922 45.4042,26.3932 50.0902,26.3932 C54.7772,26.3932 58.5752,30.1922 58.5752,34.8782" id="Stroke-13" stroke="#000000" stroke-width="4"></path>
                <path d="M83.3741,30.0589 L93.8791,30.0999" id="Stroke-15" stroke="#000000" stroke-width="4" stroke-linecap="round"></path>
                <path d="M6.096,30.0589 L16.601,30.0999" id="Stroke-17" stroke="#000000" stroke-width="4" stroke-linecap="round"></path>
                <path d="M24.7382,38.0922 L30.7382,32.0922" id="Stroke-19" stroke="#000000" stroke-width="2"></path>
                <path d="M26.7398,43.0963 L32.7398,37.0963" id="Stroke-21" stroke="#000000" stroke-width="2"></path>
                <path d="M66.9858,37.8782 L72.9858,31.8782" id="Stroke-23" stroke="#000000" stroke-width="2"></path>
                <path d="M68.7734,43.0963 L74.7734,37.0963" id="Stroke-25" stroke="#000000" stroke-width="2"></path>
            </g>
        </g>
    </g>
</svg>