<svg xmlns="http://www.w3.org/2000/svg" width="140" height="140" viewBox="0 0 140 140">
  <g fill="none" fill-rule="evenodd" transform="translate(20 6)">
    <path fill="#000" d="M68.5244 77.2561C68.5244 80.2941 66.0624 82.7561 63.0244 82.7561 59.9864 82.7561 57.5244 80.2941 57.5244 77.2561 57.5244 74.2181 59.9864 71.7561 63.0244 71.7561 66.0624 71.7561 68.5244 74.2181 68.5244 77.2561M43.7627 77.2561C43.7627 80.2941 41.3007 82.7561 38.2627 82.7561 35.2247 82.7561 32.7627 80.2941 32.7627 77.2561 32.7627 74.2181 35.2247 71.7561 38.2627 71.7561 41.3007 71.7561 43.7627 74.2181 43.7627 77.2561"/>
    <path stroke="#000" stroke-width="4" d="M100 64.4749C100 92.0889 77.614 114.4749 50 114.4749 22.386 114.4749 0 92.0889 0 64.4749 0 36.8609 22.386 14.4749 50 14.4749 77.614 14.4749 100 36.8609 100 64.4749zM23.4229 55.8265L42.7559 65.1595M57.4243 65.159L76.7573 55.826M4.2861 46.197L95.6641 46.197M17.1192 26.7813L82.8302 26.7813"/>
    <path stroke="#000" stroke-width="4" d="M83.8633,24.999 C83.8633,24.999 73.0053,18.361 84.7693,0.108 C84.7693,0.108 94.4243,9.235 83.8633,24.999 Z"/>
    <path stroke="#000" stroke-width="4" d="M85.5518,25.5535 C85.5518,25.5535 83.4408,13.0035 104.9358,9.9125 C104.9358,9.9125 104.3788,23.1875 85.5518,25.5535 Z"/>
  </g>
</svg>
