<svg xmlns="http://www.w3.org/2000/svg" width="140" height="140" viewBox="0 0 140 140">
  <g fill="none" fill-rule="evenodd" stroke="#000" stroke-width="4" transform="translate(20 20)">
    <path d="M23.4699 39.2807C23.4699 39.2807 33.2139 28.5107 43.4699 38.7677M55.1506 39.2807C55.1506 39.2807 64.8936 28.5107 75.1506 38.7677"/>
    <path d="M100.0002,49.9999 C100.0002,77.6139 77.6142,99.9999 50.0002,99.9999 C22.3862,99.9999 0.0002,77.6139 0.0002,49.9999 C0.0002,22.3859 22.3862,-0.0001 50.0002,-0.0001 C77.6142,-0.0001 100.0002,22.3859 100.0002,49.9999 Z"/>
    <path d="M28.7033,62.8241 C28.8443,74.0871 38.0133,83.1761 49.3103,83.1761 C60.6073,83.1761 69.7763,74.0871 69.9163,62.8241 C64.5863,66.3281 57.3223,68.4901 49.3103,68.4901 C41.2983,68.4901 34.0343,66.3281 28.7033,62.8241 Z"/>
  </g>
</svg>
