<svg xmlns="http://www.w3.org/2000/svg" xmlns:xlink="http://www.w3.org/1999/xlink" width="140" height="140" viewBox="0 0 140 140">
  <defs>
    <polygon id="ic_response_whatbringsyou_specificneed-a" points="0 133.639 141.277 133.639 141.277 0 0 0"/>
  </defs>
  <g fill="none" fill-rule="evenodd" transform="translate(0 1)">
    <path stroke="#000" stroke-width="4" d="M119.9235,70.9636 C119.9235,98.5776 97.5375,120.9636 69.9235,120.9636 C42.3095,120.9636 19.9235,98.5776 19.9235,70.9636 C19.9235,43.3496 42.3095,20.9636 69.9235,20.9636 C97.5375,20.9636 119.9235,43.3496 119.9235,70.9636 Z"/>
    <path fill="#000" d="M59.6608 68.0612C59.6608 71.0992 57.1988 73.5612 54.1608 73.5612 51.1228 73.5612 48.6608 71.0992 48.6608 68.0612 48.6608 65.0232 51.1228 62.5612 54.1608 62.5612 57.1988 62.5612 59.6608 65.0232 59.6608 68.0612M92.1642 68.0612C92.1642 71.0992 89.7022 73.5612 86.6642 73.5612 83.6262 73.5612 81.1642 71.0992 81.1642 68.0612 81.1642 65.0232 83.6262 62.5612 86.6642 62.5612 89.7022 62.5612 92.1642 65.0232 92.1642 68.0612"/>
    <path stroke="#000" stroke-width="4" d="M42.9952 54.0363C42.9952 54.0363 52.7392 43.2673 62.9952 53.5233M76.6642 54.0363C76.6642 54.0363 86.4082 43.2673 96.6642 53.5233"/>
    <path fill="#000" d="M14.257 102.3879C13.721 102.3879 13.24 102.5869 12.855 102.9709 12.276 103.5459 11.956 104.3039 11.955 105.1029 11.954 105.9519 12.314 106.7799 12.968 107.4339L17.674 112.1409 22.379 107.4339C23.033 106.7799 23.393 105.9519 23.392 105.1029 23.391 104.3039 23.071 103.5459 22.492 102.9709 21.926 102.4079 21.266 102.3569 20.812 102.4129 19.842 102.5339 18.886 103.2359 18.254 104.2899L17.675 105.2529 17.094 104.2919C16.452 103.2279 15.495 102.5229 14.535 102.4059 14.441 102.3939 14.348 102.3879 14.257 102.3879L14.257 102.3879zM17.673 114.0549L12.011 108.3909C11.101 107.4809 10.6 106.3119 10.602 105.1009 10.604 103.9389 11.065 102.8419 11.901 102.0109 12.646 101.2689 13.639 100.9319 14.7 101.0619 15.79 101.1959 16.853 101.8229 17.673 102.7859 18.487 101.8299 19.55 101.2069 20.645 101.0709 21.71 100.9379 22.704 101.2729 23.446 102.0109 24.282 102.8419 24.743 103.9389 24.745 105.1009 24.746 106.3119 24.246 107.4809 23.336 108.3909L17.673 114.0549zM121.3556 37.923L121.3556 42.545C121.3556 44.619 124.2576 46.455 125.6706 47.141 127.0846 46.455 129.9856 44.619 129.9856 42.545L129.9856 37.923C129.9486 37.923 129.9106 37.924 129.8706 37.924 128.7096 37.924 126.9846 37.416 125.6706 36.311 124.3566 37.416 122.6326 37.924 121.4706 37.924 121.4316 37.924 121.3926 37.923 121.3556 37.923L121.3556 37.923zM125.6706 48.579L125.4076 48.464C125.1886 48.367 120.0446 46.066 120.0446 42.545L120.0446 36.47 120.7936 36.577C120.7946 36.577 121.0606 36.613 121.4706 36.613 122.3366 36.613 124.0436 36.173 125.1966 34.962L125.6706 34.464 126.1456 34.962C127.2986 36.173 129.0046 36.613 129.8706 36.613 130.2806 36.613 130.5476 36.577 130.5496 36.577L131.2946 36.473 131.2966 42.545C131.2966 46.066 126.1536 48.367 125.9346 48.464L125.6706 48.579zM20.0812 41.8586C19.6562 41.3486 19.1232 40.8406 18.4032 40.2606 16.9322 39.0726 15.4702 38.3166 14.0592 38.0126 13.1692 37.8216 12.2532 37.8096 11.3352 37.9756 10.5722 38.1136 9.7852 38.3966 8.9282 38.8386 7.7852 39.4306 6.6752 40.2636 5.6302 41.3136 5.4322 41.5126 5.2702 41.6816 5.1232 41.8586L4.0832 40.9926C4.2722 40.7646 4.4772 40.5536 4.6712 40.3596 5.8152 39.2096 7.0392 38.2936 8.3072 37.6376 9.2842 37.1316 10.1962 36.8066 11.0952 36.6446 12.1872 36.4456 13.2802 36.4616 14.3432 36.6906 15.9632 37.0386 17.6152 37.8856 19.2532 39.2076 20.0442 39.8446 20.6372 40.4126 21.1212 40.9926L20.0812 41.8586z"/>
    <path fill="#000" d="M12.6022 38.3342C11.2192 38.3342 10.0932 39.4592 10.0932 40.8432 10.0932 42.2262 11.2192 43.3522 12.6022 43.3522 13.9852 43.3522 15.1112 42.2262 15.1112 40.8432 15.1112 39.4592 13.9852 38.3342 12.6022 38.3342M12.6022 44.7052C10.4732 44.7052 8.7402 42.9722 8.7402 40.8432 8.7402 38.7132 10.4732 36.9812 12.6022 36.9812 14.7312 36.9812 16.4642 38.7132 16.4642 40.8432 16.4642 42.9722 14.7312 44.7052 12.6022 44.7052M30.1354 17.9997L37.3914 17.9997 37.2474 18.7957C37.1954 19.0877 37.1944 19.4207 37.5454 19.8717 37.8554 20.2707 38.2924 20.4967 38.7184 20.4787 39.4824 20.4427 40.0804 19.8157 40.0804 19.0517 40.0804 18.6207 39.8874 18.2167 39.5514 17.9447 39.3124 17.7497 39.1754 17.4627 39.1754 17.1547 39.1764 16.8507 39.3124 16.5647 39.5494 16.3737 39.9394 16.0587 40.1334 15.5697 40.0674 15.0677 39.9854 14.4427 39.4494 13.9177 38.8224 13.8467 38.4074 13.7977 38.0084 13.9237 37.7004 14.1987 37.3974 14.4697 37.2224 14.8587 37.2224 15.2647 37.2224 15.3067 37.2254 15.3487 37.2294 15.3897L37.2954 16.1257 30.2334 16.1257 30.2964 15.3907C30.3004 15.3497 30.3034 15.3077 30.3034 15.2647 30.3034 14.8587 30.1294 14.4697 29.8254 14.1987 29.5174 13.9237 29.1194 13.7977 28.7034 13.8467 28.0764 13.9177 27.5414 14.4427 27.4594 15.0677 27.3934 15.5697 27.5864 16.0587 27.9774 16.3737 28.2144 16.5647 28.3504 16.8497 28.3514 17.1547 28.3514 17.4617 28.2144 17.7497 27.9754 17.9447 27.6384 18.2167 27.4464 18.6207 27.4464 19.0517 27.4464 19.8157 28.0444 20.4427 28.8074 20.4787 29.2284 20.4977 29.6714 20.2707 29.9814 19.8717 30.3324 19.4207 30.3314 19.0877 30.2794 18.7957L30.1354 17.9997zM38.6684 21.8327C37.8434 21.8327 37.0314 21.4157 36.4764 20.7017 36.1414 20.2707 35.9464 19.8247 35.8884 19.3527L31.6374 19.3527C31.5794 19.8247 31.3854 20.2707 31.0504 20.7017 30.4694 21.4477 29.6114 21.8667 28.7454 21.8297 27.2584 21.7617 26.0934 20.5407 26.0934 19.0517 26.0934 18.3407 26.3614 17.6697 26.8394 17.1587 26.2744 16.5537 26.0074 15.7317 26.1174 14.8917 26.2814 13.6487 27.3044 12.6447 28.5514 12.5017 29.3424 12.4117 30.1354 12.6617 30.7264 13.1887 31.1934 13.6057 31.5034 14.1657 31.6124 14.7727L35.9134 14.7727C36.0234 14.1657 36.3334 13.6057 36.8004 13.1887 37.3904 12.6627 38.1824 12.4127 38.9754 12.5017 40.2214 12.6437 41.2444 13.6487 41.4084 14.8917 41.5194 15.7317 41.2524 16.5547 40.6874 17.1587 41.1654 17.6697 41.4334 18.3407 41.4334 19.0517 41.4334 20.5407 40.2684 21.7617 38.7814 21.8297 38.7434 21.8317 38.7064 21.8327 38.6684 21.8327L38.6684 21.8327zM66.6891 9.3556L70.7561 9.3556 70.1791 13.4356 75.1581 6.9346 71.0901 6.9346 71.6681 2.8556 66.6891 9.3556zM69.7981 15.2896C69.6761 15.2896 69.5521 15.2656 69.4331 15.2146 69.0371 15.0486 68.8111 14.6516 68.8711 14.2276L69.3931 10.5396 66.2611 10.5396C65.8881 10.5396 65.5541 10.3316 65.3891 9.9976 65.2241 9.6636 65.2621 9.2716 65.4891 8.9756L71.3161 1.3676C71.5771 1.0266 72.0171.9086 72.4141 1.0746 72.8101 1.2406 73.0361 1.6376 72.9761 2.0636L72.4541 5.7506 75.5981 5.7506C75.9681 5.7506 76.3001 5.9576 76.4641 6.2896 76.6281 6.6216 76.5901 7.0106 76.3651 7.3056L70.5311 14.9226C70.3491 15.1606 70.0791 15.2896 69.7981 15.2896L69.7981 15.2896zM121.8483 110.2917C122.2573 110.2917 122.5963 110.4637 122.8953 110.6157 123.1963 110.7687 123.4573 110.8997 123.7993 110.8997 124.8313 110.8997 125.6553 110.2567 126.3163 108.9327 127.0663 107.4327 127.4163 105.4317 127.4163 104.5517 127.4163 103.2027 126.3193 102.1047 124.9703 102.1047 124.3843 102.1047 123.8353 102.3147 123.3833 102.7107 123.2633 102.8217 122.7173 103.2767 121.8483 103.2767 120.9343 103.2767 120.3623 102.7597 120.3003 102.7007 119.8653 102.3167 119.3143 102.1047 118.7253 102.1047 117.3773 102.1047 116.2803 103.2027 116.2803 104.5517 116.2803 105.4317 116.6293 107.4327 117.3793 108.9327 118.0413 110.2567 118.8653 110.8997 119.8963 110.8997 120.2623 110.8997 120.5183 110.7677 120.8163 110.6137 121.1083 110.4627 121.4383 110.2917 121.8483 110.2917M123.7993 112.2527C123.1333 112.2527 122.6423 112.0037 122.2833 111.8217 122.1193 111.7387 121.9333 111.6447 121.8483 111.6447 121.7673 111.6447 121.6003 111.7307 121.4373 111.8147 121.0803 111.9997 120.5903 112.2527 119.8963 112.2527 118.8153 112.2527 117.2913 111.7817 116.1693 109.5377 115.3123 107.8237 114.9273 105.5897 114.9273 104.5517 114.9273 102.4567 116.6313 100.7517 118.7253 100.7517 119.6363 100.7517 120.5193 101.0897 121.2133 101.7027 121.2323 101.7187 121.4713 101.9237 121.8483 101.9237 122.2293 101.9237 122.4563 101.7247 122.4663 101.7167 123.1753 101.0897 124.0593 100.7517 124.9703 100.7517 127.0653 100.7517 128.7693 102.4567 128.7693 104.5517 128.7693 105.5897 128.3843 107.8237 127.5273 109.5377 126.4053 111.7817 124.8803 112.2527 123.7993 112.2527"/>
    <mask id="ic_response_whatbringsyou_specificneed-b" fill="#fff">
      <use xlink:href="#ic_response_whatbringsyou_specificneed-a"/>
    </mask>
    <polygon fill="#000" points="121.172 102.708 122.525 102.708 122.525 98.987 121.172 98.987" mask="url(#ic_response_whatbringsyou_specificneed-b)"/>
    <path fill="#000" d="M48.1139 133.6389C47.2879 133.6389 46.4759 133.2219 45.9209 132.5089 45.5859 132.0769 45.3909 131.6309 45.3329 131.1589L42.7829 131.1589 42.7829 129.8059 46.8359 129.8059 46.6919 130.6029C46.6389 130.8949 46.6389 131.2269 46.9889 131.6789 47.2999 132.0779 47.7389 132.3069 48.1639 132.2849 48.9269 132.2499 49.5249 131.6229 49.5249 130.8579 49.5249 130.4269 49.3319 130.0239 48.9959 129.7509 48.7569 129.5559 48.6189 129.2689 48.6199 128.9619 48.6199 128.6569 48.7569 128.3719 48.9939 128.1799 49.3839 127.8649 49.5779 127.3769 49.5119 126.8739 49.4289 126.2489 48.8939 125.7239 48.2669 125.6529 47.8519 125.6049 47.4529 125.7299 47.1449 126.0049 46.8419 126.2759 46.6679 126.6649 46.6679 127.0719 46.6679 127.1139 46.6709 127.1559 46.6749 127.1979L46.7379 127.9329 42.7829 127.9329 42.7829 126.5799 45.3589 126.5799C45.4679 125.9719 45.7779 125.4119 46.2439 124.9949 46.8349 124.4689 47.6289 124.2189 48.4199 124.3079 49.6659 124.4509 50.6899 125.4549 50.8529 126.6979 50.9639 127.5389 50.6969 128.3609 50.1319 128.9649 50.6099 129.4759 50.8779 130.1479 50.8779 130.8579 50.8779 132.3469 49.7129 133.5679 48.2259 133.6369 48.1889 133.6389 48.1509 133.6389 48.1139 133.6389M55.3448 133.6387C55.2388 133.6387 55.1328 133.6327 55.0268 133.6207 53.7808 133.4797 52.7578 132.4737 52.5938 131.2317 52.4828 130.3907 52.7498 129.5687 53.3148 128.9647 52.8368 128.4527 52.5688 127.7817 52.5688 127.0717 52.5688 125.5817 53.7338 124.3617 55.2208 124.2927 56.0818 124.2557 56.9458 124.6747 57.5258 125.4207 57.8608 125.8527 58.0558 126.2977 58.1138 126.7707L60.6638 126.7707 60.6638 128.1237 56.6108 128.1237 56.7548 127.3267C56.8068 127.0347 56.8078 126.7027 56.4568 126.2507 56.1468 125.8517 55.7078 125.6217 55.2838 125.6447 54.5198 125.6797 53.9218 126.3067 53.9218 127.0717 53.9218 127.5017 54.1148 127.9057 54.4508 128.1787 54.6898 128.3727 54.8268 128.6597 54.8268 128.9667 54.8268 129.2717 54.6908 129.5577 54.4528 129.7497 54.0628 130.0647 53.8688 130.5527 53.9348 131.0547 54.0168 131.6797 54.5528 132.2057 55.1798 132.2767 55.5948 132.3237 55.9938 132.1987 56.3018 131.9237 56.6048 131.6527 56.7788 131.2647 56.7788 130.8577 56.7788 130.8157 56.7758 130.7747 56.7728 130.7337L56.7068 129.9967 60.6638 129.9967 60.6638 131.3497 58.0878 131.3497C57.9788 131.9567 57.6688 132.5167 57.2018 132.9337 56.6908 133.3897 56.0278 133.6387 55.3448 133.6387L55.3448 133.6387zM127.8992 74.6035L128.0582 75.1375C128.6522 77.1365 130.5242 78.5325 132.6092 78.5325 134.6982 78.5325 136.5702 77.1335 137.1632 75.1305L137.3292 74.5695 137.9092 74.6535C137.9652 74.6615 138.0002 74.6685 138.0372 74.6685 138.5262 74.6685 138.9232 74.2705 138.9232 73.7815 138.9232 73.2925 138.5262 72.8945 138.0372 72.8945 137.9992 72.8945 137.9642 72.9025 137.9282 72.9075L137.3472 72.9935 137.1632 72.4335C136.8762 71.4655 136.2772 70.6125 135.4822 70.0045 135.4932 70.2405 135.4972 70.4305 135.4972 70.5065 135.4972 72.6295 133.9442 73.8985 132.4432 73.8985 131.3812 73.8985 130.4212 73.3105 129.9362 72.3655 129.6392 71.7845 129.8702 71.0705 130.4512 70.7725 130.7312 70.6275 131.0522 70.6015 131.3532 70.6985 131.6542 70.7965 131.8992 71.0045 132.0442 71.2865 132.1212 71.4365 132.2742 71.5295 132.4432 71.5295 132.6662 71.5295 133.1292 71.2795 133.1292 70.5065 133.1292 69.8195 132.9132 69.2305 132.7712 69.0365 132.7172 69.0335 132.6642 69.0315 132.6092 69.0315 130.5242 69.0315 128.6522 70.4275 128.0582 72.4265L127.8992 72.9625 127.2672 72.8975 127.2622 72.8975C126.7682 72.8975 126.3732 73.2945 126.3732 73.7815 126.3732 74.2705 126.7712 74.6685 127.2602 74.6685L127.3452 74.6565 127.8992 74.6035zM132.6092 79.8855C130.0982 79.8855 127.8272 78.3095 126.9232 75.9965 125.8482 75.8335 125.0202 74.9025 125.0202 73.7815 125.0202 72.6605 125.8482 71.7295 126.9242 71.5675 127.8272 69.2545 130.0982 67.6785 132.6092 67.6785 132.7392 67.6785 132.8672 67.6865 132.9942 67.6955L133.1842 67.7245C133.4022 67.7895 133.5882 67.9185 133.7452 68.0925L133.5902 67.5975 134.9192 68.1335C136.4802 68.7725 137.6862 70.0045 138.2912 71.5565 139.4072 71.6835 140.2762 72.6335 140.2762 73.7815 140.2762 74.9305 139.4072 75.8815 138.2912 76.0075 137.3842 78.3145 135.1182 79.8855 132.6092 79.8855L132.6092 79.8855z" mask="url(#ic_response_whatbringsyou_specificneed-b)"/>
    <path fill="#000" d="M135.7677 69.9426L134.4067 69.3856C133.9487 69.1976 133.4567 69.0846 132.9457 69.0486L132.8027 69.0236C132.7097 68.9956 132.5917 68.9826 132.4427 68.9826 131.7897 68.9826 131.2587 68.4516 131.2587 67.7986 131.2587 67.1466 131.7897 66.6146 132.4427 66.6146 133.8557 66.6146 134.8987 67.3186 135.3057 68.5466L135.7677 69.9426zM6.0875 76.4059C6.3005 76.4059 6.5125 76.4789 6.6865 76.6239 6.8775 76.7839 7.1255 76.8719 7.3855 76.8719 7.7855 76.8719 8.1335 76.6789 8.2945 76.3689L8.4595 76.0479 8.8195 76.0479C9.1095 76.0479 9.4045 75.9619 9.6725 75.7979 10.3315 75.3769 10.5865 74.5179 10.2535 73.8069L10.0675 73.4119 10.3915 73.1179C10.7725 72.7709 10.9915 72.2969 10.9915 71.8159 10.9915 71.3519 10.8005 70.9119 10.4545 70.5769L10.1755 70.3069 10.3115 69.9439C10.4755 69.5059 10.4225 69.0169 10.1645 68.6019 9.8785 68.1389 9.3885 67.8739 8.8195 67.8739L8.4595 67.8739 8.2945 67.5529C8.1335 67.2419 7.7855 67.0499 7.3855 67.0499 7.1255 67.0499 6.8775 67.1379 6.6865 67.2979 6.3395 67.5889 5.8365 67.5889 5.4885 67.2979L5.4885 67.2979C5.2975 67.1379 5.0495 67.0499 4.7905 67.0499 4.3895 67.0499 4.0415 67.2419 3.8815 67.5529L3.7155 67.8739 3.3555 67.8739C2.7875 67.8739 2.2975 68.1389 2.0115 68.6009 1.7535 69.0169 1.6995 69.5059 1.8635 69.9439L2.0005 70.3069 1.7205 70.5769C1.3745 70.9119 1.1835 71.3519 1.1835 71.8159 1.1835 72.2969 1.4025 72.7709 1.7845 73.1179L2.1075 73.4119 1.9215 73.8069C1.5885 74.5179 1.8435 75.3769 2.5135 75.8049 2.7715 75.9619 3.0655 76.0479 3.3555 76.0479L3.7155 76.0479 3.8815 76.3689C4.0415 76.6789 4.3895 76.8719 4.7905 76.8719 5.0495 76.8719 5.2975 76.7839 5.4885 76.6239 5.6625 76.4789 5.8755 76.4059 6.0875 76.4059M7.3855 78.0559C6.9175 78.0559 6.4635 77.9149 6.0875 77.6549 5.7115 77.9149 5.2575 78.0559 4.7905 78.0559 4.0705 78.0559 3.4205 77.7389 3.0185 77.2099 2.6255 77.1599 2.2405 77.0249 1.8875 76.8099.8285 76.1329.3645 74.8529.7015 73.6969.2525 73.1629.0005 72.4969.0005 71.8159.0005 71.1499.2285 70.5169.6485 69.9989.4965 69.3149.6205 68.5959 1.0045 67.9769 1.4455 67.2649 2.1825 66.8069 3.0195 66.7089 3.4215 66.1819 4.0715 65.8659 4.7905 65.8659 5.2575 65.8659 5.7115 66.0069 6.0875 66.2669 6.4635 66.0069 6.9175 65.8659 7.3855 65.8659 8.1035 65.8659 8.7535 66.1819 9.1555 66.7089 9.9925 66.8069 10.7295 67.2649 11.1705 67.9779 11.5545 68.5959 11.6785 69.3149 11.5265 69.9989 11.9475 70.5169 12.1755 71.1499 12.1755 71.8159 12.1755 72.4969 11.9235 73.1629 11.4735 73.6969 11.8105 74.8529 11.3475 76.1319 10.2995 76.8019 9.9375 77.0229 9.5495 77.1599 9.1575 77.2099 8.7545 77.7389 8.1045 78.0559 7.3855 78.0559" mask="url(#ic_response_whatbringsyou_specificneed-b)"/>
    <path fill="#000" d="M2.4337 76.6603C2.1067 76.6603 1.8417 76.3953 1.8417 76.0683 1.8417 75.7413 2.1067 75.4763 2.4337 75.4763 2.7647 75.4763 3.0337 75.2063 3.0337 74.8753 3.0337 74.5493 3.2987 74.2843 3.6257 74.2843 3.9527 74.2843 4.2177 74.5493 4.2177 74.8753 4.2177 75.8593 3.4177 76.6603 2.4337 76.6603M3.5143 69.5768C3.3633 69.5768 3.2113 69.5188 3.0963 69.4038 2.8643 69.1728 2.8643 68.7978 3.0963 68.5668 3.2093 68.4528 3.2713 68.3028 3.2713 68.1418 3.2713 67.9818 3.2093 67.8308 3.0963 67.7178 2.8643 67.4868 2.8643 67.1118 3.0963 66.8808 3.3273 66.6488 3.7013 66.6488 3.9323 66.8808 4.6283 67.5758 4.6283 68.7078 3.9323 69.4038 3.8173 69.5188 3.6653 69.5768 3.5143 69.5768M8.7091 77.5031C8.5571 77.5031 8.4061 77.4451 8.2911 77.3301 8.0591 77.0991 8.0591 76.7241 8.2911 76.4931 8.4041 76.3791 8.4661 76.2291 8.4661 76.0681 8.4661 75.9081 8.4041 75.7571 8.2911 75.6441 8.0591 75.4131 8.0591 75.0381 8.2911 74.8071 8.5221 74.5751 8.8961 74.5751 9.1271 74.8071 9.8231 75.5021 9.8231 76.6341 9.1271 77.3301 9.0121 77.4451 8.8601 77.5031 8.7091 77.5031M8.4039 69.3737C8.3869 69.3737 8.3699 69.3737 8.3539 69.3717 8.0279 69.3447 7.7859 69.0577 7.8139 68.7317 7.8959 67.7517 8.7609 67.0207 9.7409 67.1037 10.0669 67.1317 10.3089 67.4177 10.2809 67.7437 10.2539 68.0697 9.9659 68.3127 9.6419 68.2837 9.3119 68.2587 9.0209 68.5017 8.9929 68.8317 8.9669 69.1407 8.7079 69.3737 8.4039 69.3737M6.2076 77.6696C5.8806 77.6696 5.6156 77.4046 5.6156 77.0776L5.6156 66.8436C5.6156 66.5176 5.8806 66.2526 6.2076 66.2526 6.5346 66.2526 6.7996 66.5176 6.7996 66.8436L6.7996 77.0776C6.7996 77.4046 6.5346 77.6696 6.2076 77.6696" mask="url(#ic_response_whatbringsyou_specificneed-b)"/>
    <path fill="#000" d="M8.3712 72.3229C8.1792 72.3229 7.9912 72.2299 7.8772 72.0579 7.4772 71.4549 6.3422 71.6669 6.3302 71.6689 6.0132 71.7379 5.6972 71.5329 5.6282 71.2139 5.5602 70.8939 5.7642 70.5799 6.0842 70.5109 6.1622 70.4949 8.0112 70.1169 8.8642 71.4039 9.0442 71.6759 8.9702 72.0429 8.6982 72.2239 8.5972 72.2909 8.4832 72.3229 8.3712 72.3229M6.0885 74.1525C6.0725 74.1525 6.0565 74.1525 6.0415 74.1505 3.6745 73.9645 3.4475 72.2465 3.4395 72.1735 3.4015 71.8485 3.6335 71.5545 3.9585 71.5165 4.2825 71.4815 4.5705 71.7065 4.6135 72.0255 4.6305 72.1195 4.7995 72.8655 6.1335 72.9705 6.4605 72.9955 6.7035 73.2805 6.6775 73.6075 6.6535 73.9175 6.3945 74.1525 6.0885 74.1525M98.194 17.7638C98.404 17.9188 98.61 18.0748 98.812 18.2278 100.585 19.5708 102.258 20.8388 105.298 20.5558 107.059 20.3908 108.166 19.5348 109.339 18.6278 109.718 18.3348 110.105 18.0348 110.52 17.7548 110.208 17.4818 109.891 17.1688 109.564 16.8448 108.896 16.1838 108.205 15.5008 107.606 15.2428 106.511 14.7718 105.402 15.2568 104.787 15.9468L104.314 16.4778 103.878 15.9168C103.3 15.1758 102.184 14.8588 101.281 15.1788 100.61 15.4178 99.972 16.0618 99.356 16.6848 98.983 17.0628 98.601 17.4488 98.194 17.7638M104.448 21.7798C101.541 21.7798 99.793 20.4558 98.097 19.1718 97.674 18.8508 97.236 18.5188 96.791 18.2188L95.885 17.6078 96.891 17.1828C97.42 16.9588 97.951 16.4218 98.514 15.8528 99.224 15.1348 99.958 14.3928 100.885 14.0628 102.063 13.6448 103.433 13.9258 104.364 14.7218 105.301 13.9708 106.688 13.5588 108.074 14.1558 108.878 14.5018 109.65 15.2648 110.396 16.0038 110.932 16.5338 111.438 17.0348 111.875 17.2998L112.749 17.8318 111.852 18.3248C111.212 18.6758 110.654 19.1068 110.063 19.5638 108.808 20.5348 107.511 21.5378 105.408 21.7338 105.075 21.7648 104.755 21.7798 104.448 21.7798M112.4537 12.4587C112.4537 13.0517 111.9737 13.5327 111.3807 13.5327 110.7867 13.5327 110.3067 13.0517 110.3067 12.4587 110.3067 11.8657 110.7867 11.3847 111.3807 11.3847 111.9737 11.3847 112.4537 11.8657 112.4537 12.4587" mask="url(#ic_response_whatbringsyou_specificneed-b)"/>
    <path fill="#000" d="M103.8019 18.9123C99.3799 18.9123 97.1089 18.3363 96.9709 18.3003L97.2709 17.1553C97.3189 17.1673 102.1569 18.3813 111.4939 17.2183L111.6399 18.3933C108.5329 18.7803 105.9199 18.9123 103.8019 18.9123M93.7531 131.194C92.5351 131.194 91.5431 130.207 91.5331 128.991 91.5331 128.513 91.1441 128.124 90.6661 128.124 90.1881 128.124 89.7981 128.513 89.7981 128.991L89.7981 128.991C89.7701 130.191 88.7851 131.158 87.5781 131.158 86.3601 131.158 85.3681 130.172 85.3581 128.956 85.3581 128.478 84.9691 128.089 84.4911 128.089 84.0131 128.089 83.6241 128.478 83.6241 128.956L82.2711 128.956C82.2711 127.732 83.2671 126.736 84.4911 126.736 85.7091 126.736 86.7011 127.722 86.7111 128.938 86.7111 129.416 87.1001 129.805 87.5781 129.805 88.0571 129.805 88.4451 129.416 88.4451 128.938L88.4461 128.938C88.4741 127.738 89.4591 126.771 90.6661 126.771 91.8841 126.771 92.8771 127.757 92.8861 128.974 92.8861 129.452 93.2751 129.841 93.7531 129.841 94.2321 129.841 94.6211 129.452 94.6211 128.974 94.6211 127.732 95.6161 126.736 96.8401 126.736 98.0591 126.736 99.0511 127.722 99.0611 128.938L99.0611 128.956 97.7081 128.956C97.7081 128.478 97.3191 128.089 96.8401 128.089 96.3621 128.089 95.9731 128.478 95.9731 128.956 95.9731 130.198 94.9771 131.194 93.7531 131.194" mask="url(#ic_response_whatbringsyou_specificneed-b)"/>
  </g>
</svg>
