<?xml version="1.0" encoding="UTF-8"?>
<svg width="140px" height="140px" viewBox="0 0 140 140" version="1.1" xmlns="http://www.w3.org/2000/svg" xmlns:xlink="http://www.w3.org/1999/xlink">
    <!-- Generator: Sketch 40.3 (33839) - http://www.bohemiancoding.com/sketch -->
    <title>ic_response_wantitfirst</title>
    <desc>Created with Sketch.</desc>
    <defs></defs>
    <g id="Styleguide/Icons" stroke="none" stroke-width="1" fill="none" fill-rule="evenodd">
        <g id="ic_response_wantitfirst">
            <g id="Page-1" transform="translate(20.000000, 20.000000)">
                <path d="M100,50 C100,77.614 77.614,100 50,100 C22.386,100 0,77.614 0,50 C0,22.386 22.386,0 50,0 C77.614,0 100,22.386 100,50" id="Fill-1" fill="#FFFFFF"></path>
                <path d="M100,50 C100,77.614 77.614,100 50,100 C22.386,100 0,77.614 0,50 C0,22.386 22.386,0 50,0 C77.614,0 100,22.386 100,50 L100,50 Z" id="Stroke-3" stroke="#000000" stroke-width="4"></path>
                <path d="M32.6717,48.4173 C33.5677,47.5213 38.6837,42.4023 41.8827,39.2043 C44.7477,36.3383 44.6867,32.1613 42.0817,29.5703 C39.4767,26.9783 35.0497,28.1863 32.6717,32.1483 C30.2447,28.1323 25.8677,26.9783 23.2617,29.5703 C20.6567,32.1613 20.5957,36.3383 23.4607,39.2043 C26.6597,42.4023 31.7757,47.5213 32.6717,48.4173" id="Fill-5" fill="#000000"></path>
                <path d="M67.8798,48.4173 C68.7758,47.5213 73.8918,42.4023 77.0908,39.2043 C79.9558,36.3383 79.8948,32.1613 77.2898,29.5703 C74.6848,26.9783 70.2578,28.1863 67.8798,32.1483 C65.4528,28.1323 61.0758,26.9783 58.4698,29.5703 C55.8648,32.1613 55.8038,36.3383 58.6688,39.2043 C61.8678,42.4023 66.9838,47.5213 67.8798,48.4173" id="Fill-7" fill="#000000"></path>
            </g>
        </g>
    </g>
</svg>