<?xml version="1.0" encoding="UTF-8"?>
<svg width="140px" height="140px" viewBox="0 0 140 140" version="1.1" xmlns="http://www.w3.org/2000/svg" xmlns:xlink="http://www.w3.org/1999/xlink">
    <!-- Generator: Sketch 40.3 (33839) - http://www.bohemiancoding.com/sketch -->
    <title>ic_response_exercise_twoormore</title>
    <desc>Created with Sketch.</desc>
    <defs></defs>
    <g id="Styleguide/Icons" stroke="none" stroke-width="1" fill="none" fill-rule="evenodd">
        <g id="ic_response_exercise_twoormore">
            <g id="Page-1" transform="translate(26.000000, 27.000000)">
                <path d="M13.3148651,25.1164675 C13.3148651,25.1164675 20.3302519,31.9573766 25.7335255,27.071013" id="Stroke-1" stroke="#000000" stroke-width="4" stroke-linecap="round" stroke-linejoin="round"></path>
                <path d="M24.6811613,15.1059558 L33.2177274,23.2245792" id="Stroke-3" stroke="#000000" stroke-width="4" stroke-linecap="round" stroke-linejoin="round"></path>
                <path d="M30.0169642,10.5686182 L39.559417,19.6432935" id="Stroke-5" stroke="#000000" stroke-width="4" stroke-linecap="round" stroke-linejoin="round"></path>
                <path d="M16.711866,28.8306623 L21.9220453,56.668974" id="Stroke-7" stroke="#000000" stroke-width="4" stroke-linecap="round" stroke-linejoin="round"></path>
                <path d="M16.711866,64.0211922 C16.711866,64.0211922 29.8860642,44.6399195 55.2386774,37.6817377" id="Stroke-9" stroke="#000000" stroke-width="4" stroke-linecap="round" stroke-linejoin="round"></path>
                <path d="M56.2982264,42.0166961 C54.8713491,39.1932156 54.9836132,35.5655792 54.9836132,32.1903584 C54.9836132,20.6328519 68.9908113,10.5965403 77.1411887,10.1464364 C88.7403208,9.50646234 95.9364528,13.2491377 95.929717,24.3721766 C95.9274717,28.6889299 94.6151038,32.7018909 92.3630849,36.0335532 L93.0692264,34.9881506 C68.1600566,71.4901247 37.5456226,81.9664883 22.5213113,84.9686701 C17.0910943,86.0542805 11.4576792,84.8748519 6.92557547,81.7062545 L6.92445283,81.7062545 C2.58319811,78.6716831 0,73.7238909 0,68.4455013 L0,26.6941766 C0,25.4834753 0.493962264,24.3241506 1.3685,23.4831377 L25.2178962,1.25604675 C26.9074717,-0.369018182 29.5692547,-0.423745455 31.325066,1.12983896 L42.3348113,10.875761 C44.2758585,12.5946442 44.3499528,15.5890078 42.4964717,17.4005922 L31.9537453,26.3725143 C30.2506981,28.037787 27.5350283,28.0846961 25.7747264,26.4808519 L19.5755,20.8338909" id="Stroke-11" stroke="#000000" stroke-width="4" stroke-linecap="round" stroke-linejoin="round"></path>
                <path d="M90.7679236,34.3793377 C66.6322538,69.3534156 37.40765,79.716974 22.0791028,82.7794675 C17.2775651,83.739987 12.2256783,82.6811818 8.21560283,79.8778052 C4.47832925,77.2654156 2.24539528,72.9911039 2.24539528,68.4453896 L2.24539528,26.6940649 C2.24539528,26.0909481 2.4946217,25.5068182 2.90326321,25.1125584 L26.7796028,2.8608961 C27.6170934,2.05450649 28.9575274,2.02435065 29.8331877,2.79946753 L40.8418104,12.5442727 C41.3110745,12.9597532 41.5793858,13.5338312 41.5939802,14.1581688 C41.6096972,14.7624026 41.3874142,15.3286623 40.9686689,15.7608961 L39.7854047,16.7683247 L31.5687915,8.95349351 C30.6718009,8.10019481 29.2516594,8.13258442 28.3939613,9.02497403 C27.5373858,9.91624675 27.5688198,11.3302208 28.4658104,12.1824026 L36.3568575,19.6867403 L34.4517349,21.3073377 L26.2328764,13.4913896 C25.3370085,12.6380909 23.9157443,12.6693636 23.0580462,13.5617532 C22.2014708,14.453026 22.2329047,15.8681169 23.1298953,16.7191818 L31.0231877,24.2257532 L30.4955462,24.6758571 C30.4551311,24.7082468 30.4169613,24.7428701 30.3810368,24.7786104 C29.5289519,25.6106883 28.1705557,25.6363766 27.2904047,24.8333377 L21.0923009,19.1863766 C20.1773481,18.3531818 18.7549613,18.4157273 17.919716,19.3248701 C17.0822255,20.2351299 17.1450934,21.6491039 18.0589236,22.4811818 L22.3810934,26.4181948 C18.9233575,27.3396234 15.0783104,23.7064026 14.8829708,23.5165325 C13.996084,22.6576494 12.5793104,22.6721688 11.7126311,23.5522727 C10.8448292,24.4334935 10.8583009,25.8474675 11.7429425,26.7108182 C12.4445934,27.3943506 13.3831217,28.1471299 14.4709613,28.8317792 C14.4709613,28.9669221 14.4788198,29.1031818 14.5046406,29.2394416 L19.6845085,56.9091039 C16.657867,60.1592338 15.0378953,62.4968701 14.8526594,62.7705065 C14.1577443,63.7913377 14.4271783,65.1773896 15.4532726,65.8687403 C15.8383387,66.1300909 16.2761689,66.2540649 16.7095085,66.2540649 C17.4291217,66.2540649 18.1363858,65.9100649 18.5697255,65.2745584 C18.6943387,65.0936234 30.7616123,47.7406104 53.3805934,40.5646364 C53.6017538,41.4112338 53.8958858,42.2354935 54.2921783,43.0195455 C54.8490085,44.1219091 56.1961783,44.5664286 57.3064708,44.0124545 C58.4156406,43.4573636 58.8613292,42.1148701 58.3044991,41.0125065 C57.8633009,40.1413377 57.6073387,39.1216234 57.4535368,38.025961 C57.5018104,37.7221688 57.490584,37.4038571 57.4030179,37.0866623 C57.3850557,37.0207662 57.3536217,36.9626883 57.3300462,36.899026 C57.2267632,35.6034416 57.2245179,34.2363766 57.2278858,32.8871818 L57.2290085,32.1902468 C57.2290085,25.1415974 66.594084,12.9653377 77.2659142,12.3778571 C83.5583198,12.026039 88.0533764,13.0826104 90.628716,15.5073636 C92.6865179,17.4462727 93.6867915,20.3457013 93.6845462,24.3709481 C93.6823009,27.9427403 92.6752915,31.3927922 90.7679236,34.3793377" id="Fill-13" fill="#FFFFFF"></path>
            </g>
        </g>
    </g>
</svg>