<?xml version="1.0" encoding="UTF-8"?>
<svg width="140px" height="140px" viewBox="0 0 140 140" version="1.1" xmlns="http://www.w3.org/2000/svg" xmlns:xlink="http://www.w3.org/1999/xlink">
    <!-- Generator: Sketch 40.3 (33839) - http://www.bohemiancoding.com/sketch -->
    <title>ic_response_exercise_rarely</title>
    <desc>Created with Sketch.</desc>
    <defs></defs>
    <g id="Styleguide/Icons" stroke="none" stroke-width="1" fill="none" fill-rule="evenodd">
        <g id="ic_response_exercise_rarely">
            <g id="Page-1" transform="translate(26.000000, 27.000000)">
                <path d="M13.3148651,25.1163558 C13.3148651,25.1163558 20.3302519,31.9572649 25.7335255,27.0709013" id="Stroke-1" stroke="#000000" stroke-width="4" stroke-linecap="round" stroke-linejoin="round"></path>
                <path d="M24.6811613,15.1058442 L33.2177274,23.2244675" id="Stroke-3" stroke="#000000" stroke-width="4" stroke-linecap="round" stroke-linejoin="round"></path>
                <path d="M30.0169642,10.5685065 L39.559417,19.6431818" id="Stroke-5" stroke="#000000" stroke-width="4" stroke-linecap="round" stroke-linejoin="round"></path>
                <path d="M16.711866,28.8305506 L19.6913566,61.1363948" id="Stroke-7" stroke="#000000" stroke-width="4" stroke-linecap="round" stroke-linejoin="round"></path>
                <path d="M14.8062943,67.3718416 C14.8062943,67.3718416 28.2779925,49.1297896 52.1823981,34.0518675" id="Stroke-9" stroke="#000000" stroke-width="4" stroke-linecap="round" stroke-linejoin="round"></path>
                <path d="M52.1820613,41.5645818 C52.1820613,41.5645818 51.6218632,12.8305299 77.1619575,6.96689351 C77.1619575,6.96689351 89.2528066,3.71676364 91.9942972,13.0405039 C91.9942972,13.0405039 95.4048821,22.8824779 85.249467,31.7583481 L27.5950896,81.1301662 C21.8853349,85.4502701 14.0189858,86.1114649 7.91742925,82.3576208 C7.58175943,82.1509974 7.25058019,81.9332052 6.92501415,81.7064779 L6.92501415,81.705361 C2.58375943,78.6707896 0.000561320755,73.7241143 0.000561320755,68.4457247 L0.000561320755,26.6944 C0.000561320755,25.4836987 0.494523585,24.324374 1.36906132,23.4822442 L25.2184575,1.25627013 C26.9069104,-0.368794805 29.569816,-0.423522078 31.3245047,1.13006234 L42.33425,10.8759844 C44.2752972,12.5948675 44.3493915,15.5892312 42.4959104,17.4008156 L31.9543066,26.3727377 C30.2501368,28.0380104 27.5355896,28.0849195 25.7741651,26.4810753 L19.5760613,20.8341143" id="Stroke-11" stroke="#000000" stroke-width="4" stroke-linecap="round" stroke-linejoin="round"></path>
                <path d="M83.778133,30.0656 L26.1753972,79.391626 C21.1033028,83.1979636 14.2450858,83.6290805 9.08991604,80.4571325 C8.79241604,80.2739636 8.49828396,80.0807429 8.20864245,79.878587 C4.46912358,77.2650805 2.23731226,72.9918857 2.23731226,68.4450545 L2.23731226,26.6937299 C2.23731226,26.0917299 2.48766132,25.5064831 2.89630283,25.1122234 L26.7726425,2.86167792 C27.6135009,2.05305455 28.9528123,2.02736623 29.8251047,2.79913247 L40.83485,12.5439377 C41.3041142,12.9605351 41.5701802,13.5323792 41.5858972,14.1578338 C41.6016142,14.7620675 41.3793311,15.3283273 40.9594632,15.760561 L39.7773217,16.7679896 L31.5607085,8.95427532 C30.6648406,8.09985974 29.2435764,8.13224935 28.3870009,9.02463896 C27.5293028,9.91591169 27.5618594,11.3310026 28.45885,12.1820675 L36.3487745,19.6864052 L34.4436519,21.3070026 L26.2247934,13.4910545 C25.3289255,12.6377558 23.908784,12.6701455 23.0510858,13.5625351 C22.1945104,14.4526909 22.2259443,15.8677818 23.1229349,16.7199636 L31.0151047,24.2254182 L30.4863406,24.6755221 C30.4470481,24.7079117 30.4088783,24.7436519 30.3718311,24.7805091 C29.5208689,25.6114701 28.1635953,25.6349247 27.2834443,24.8330026 L21.0842179,19.1871584 C20.1703877,18.3539636 18.7480009,18.4153922 17.9127557,19.3256519 C17.0752651,20.2347948 17.138133,21.6487688 18.0519632,22.4808468 L22.3752557,26.4189766 C18.9253783,27.3392883 15.0881896,23.7239377 14.8760104,23.5184312 C13.9891236,22.6561974 12.5689821,22.6718338 11.7034255,23.5519377 C10.8356236,24.4331584 10.8502179,25.8482494 11.7348594,26.7116 C12.4387557,27.3973662 13.3795292,28.1512623 14.4707368,28.8381455 C14.4718594,28.9040416 14.4628783,28.9677039 14.4696142,29.0347169 L17.3896047,60.7050545 C14.6638311,63.8044052 13.1684726,65.8080935 12.98885,66.0504571 C12.2557651,67.0433662 12.4701896,68.440587 13.4693406,69.1721455 C13.8701236,69.4636519 14.3360198,69.6054961 14.7974255,69.6054961 C15.48785,69.6054961 16.1681708,69.2905351 16.6082462,68.6952364 C16.7339821,68.5243532 28.9056613,52.2591844 50.1370575,38.0501974 C49.9192651,40.1923792 49.9282462,41.5460416 49.9293689,41.608587 C49.9529443,42.8271065 50.9532179,43.7976779 52.1735292,43.7976779 C52.1870009,43.7976779 52.2004726,43.7976779 52.215067,43.796561 C53.4533406,43.7742234 54.4401425,42.7567429 54.4199349,41.5248208 C54.4188123,41.455574 54.3357368,34.5632883 57.2332745,27.1337818 C61.0132085,17.4392364 67.8860198,11.3868468 77.7394443,9.12292468 C78.1435953,9.01123636 87.7309538,6.52617143 89.8583594,13.754639 C89.9751142,14.1031065 92.5818877,22.3691584 83.778133,30.0656" id="Fill-13" fill="#FFFFFF"></path>
            </g>
        </g>
    </g>
</svg>