<svg height="480pt" viewBox="-8 0 480 480" width="480pt" xmlns="http://www.w3.org/2000/svg"><path d="m464 232c0-127.929688-104.070312-232-232-232s-232 104.070312-232 232c0 107.734375 75.753906 202.34375 180.441406 226.0625 13.421875 13.929688 32.03125 21.9375 51.558594 21.9375 19.167969 0 37.257812-7.472656 50.953125-21.070312.320313-.320313.597656-.625.886719-.9375 104.542968-23.832032 180.160156-118.351563 180.160156-225.992188zm-304 154.992188c-40.609375-15.726563-67.519531-43.921876-71.488281-74.992188h71.488281zm30.480469 58.511718c-9.335938-10.289062-14.480469-23.609375-14.480469-37.503906v-96h112v96c0 13.902344-5.144531 27.222656-14.808594 37.878906-.472656.585938-1 1.167969-1.550781 1.722656-10.640625 10.574219-24.71875 16.398438-39.640625 16.398438-15.863281 0-30.984375-6.726562-41.519531-18.496094zm113.519531-133.503906h71.488281c-3.96875 31.070312-30.878906 59.265625-71.488281 74.992188zm-6.464844 125.800781c.234375-.503906.394532-1.039062.609375-1.554687.597657-1.398438 1.160157-2.8125 1.671875-4.246094.304688-.863281.597656-1.726562.871094-2.601562.457031-1.445313.847656-2.917969 1.207031-4.390626.210938-.871093.433594-1.726562.609375-2.609374.328125-1.597657.566406-3.222657.792969-4.855469.101563-.765625.238281-1.519531.320313-2.285157.238281-2.402343.382812-4.824218.382812-7.257812v-4c53.625-18.816406 88-57.558594 88-100 0-4.414062-3.585938-8-8-8h-304c-4.414062 0-8 3.585938-8 8 0 42.441406 34.375 81.183594 88 100v4c0 2.433594.144531 4.855469.390625 7.257812.082031.765626.21875 1.519532.320313 2.277344.21875 1.632813.464843 3.257813.792968 4.863282.175782.867187.390625 1.722656.609375 2.578124.359375 1.496094.757813 2.984376 1.222657 4.449219.265624.847657.542968 1.6875.847656 2.527344.519531 1.480469 1.097656 2.925781 1.71875 4.367187.210937.488282.363281.992188.578125 1.472657-88.304688-28.097657-150.480469-111.59375-150.480469-205.792969 0-119.105469 96.894531-216 216-216s216 96.894531 216 216c0 94.199219-62.175781 177.695312-150.464844 205.800781zm0 0"/><path d="m185.792969 167.519531c-17.265625-2.679687-30.65625-16.078125-33.320313-33.351562-1.273437-8.207031-8.191406-14.167969-16.472656-14.167969s-15.199219 5.960938-16.472656 14.175781c-2.664063 17.265625-16.054688 30.664063-33.320313 33.34375-8.230469 1.28125-14.207031 8.207031-14.207031 16.480469s5.976562 15.199219 14.207031 16.480469c17.265625 2.679687 30.65625 16.078125 33.320313 33.351562 1.273437 8.207031 8.191406 14.167969 16.472656 14.167969s15.199219-5.960938 16.472656-14.175781c2.664063-17.265625 16.054688-30.664063 33.320313-33.34375 8.230469-1.28125 14.207031-8.207031 14.207031-16.480469s-5.976562-15.199219-14.207031-16.480469zm-2.457031 17.144531c-24.191407 3.75-42.953126 22.527344-46.679688 46.71875-.113281.730469-1.207031.722657-1.320312 0-3.726563-24.191406-22.488282-42.96875-46.679688-46.71875-.320312-.046874-.65625-.28125-.65625-.664062s.335938-.617188.664062-.664062c24.191407-3.75 42.953126-22.527344 46.679688-46.71875.046875-.359376.320312-.617188.65625-.617188s.609375.257812.664062.617188c3.726563 24.191406 22.488282 42.96875 46.679688 46.71875.320312.046874.65625.28125.65625.664062s-.335938.617188-.664062.664062zm0 0"/><path d="m377.792969 167.519531c-17.265625-2.679687-30.65625-16.078125-33.320313-33.351562-1.273437-8.207031-8.191406-14.167969-16.472656-14.167969s-15.199219 5.960938-16.472656 14.175781c-2.664063 17.265625-16.054688 30.664063-33.320313 33.34375-8.230469 1.28125-14.207031 8.207031-14.207031 16.480469s5.976562 15.199219 14.207031 16.480469c17.265625 2.679687 30.65625 16.078125 33.320313 33.351562 1.273437 8.207031 8.191406 14.167969 16.472656 14.167969s15.199219-5.960938 16.472656-14.175781c2.664063-17.265625 16.054688-30.664063 33.320313-33.34375 8.230469-1.28125 14.207031-8.207031 14.207031-16.480469s-5.976562-15.199219-14.207031-16.480469zm-2.457031 17.144531c-24.191407 3.75-42.953126 22.527344-46.679688 46.71875-.113281.730469-1.207031.722657-1.320312 0-3.726563-24.191406-22.488282-42.96875-46.679688-46.71875-.320312-.046874-.65625-.28125-.65625-.664062s.335938-.617188.664062-.664062c24.191407-3.75 42.953126-22.527344 46.679688-46.71875.046875-.359376.320312-.617188.65625-.617188s.609375.257812.664062.617188c3.726563 24.191406 22.488282 42.96875 46.679688 46.71875.320312.046874.65625.28125.65625.664062s-.335938.617188-.664062.664062zm0 0"/><path d="m224 352h16c4.40625 0 8 3.59375 8 8h16c0-13.230469-10.769531-24-24-24v-16h-16v16c-13.230469 0-24 10.769531-24 24v8c0 13.230469 10.769531 24 24 24h16c4.40625 0 8 3.59375 8 8v8c0 4.40625-3.59375 8-8 8h-16c-4.40625 0-8-3.59375-8-8h-16c0 13.230469 10.769531 24 24 24v16h16v-16c13.230469 0 24-10.769531 24-24v-8c0-13.230469-10.769531-24-24-24h-16c-4.40625 0-8-3.59375-8-8v-8c0-4.40625 3.59375-8 8-8zm0 0"/></svg>